<svg width="18" height="18" viewBox="0 0 18 18" fill="none" xmlns="http://www.w3.org/2000/svg">
<path d="M3.48088 0.533301L2.95644 1.06663L3.48088 1.59997L4.01421 2.1333L4.54755 1.59997L5.08088 1.06663L4.54755 0.533301L4.01421 -3.26633e-05L3.48088 0.533301Z" fill="#FFB673"/>
<path d="M5.83644 3.24438C5.83644 5.8666 5.73866 5.99104 3.83644 5.99993C2.87644 5.99993 2.73421 5.98215 2.40532 5.79549C1.8631 5.48437 1.7031 5.1466 1.71199 4.39993C1.72088 3.9466 1.80088 3.58215 1.99644 3.05771L2.2631 2.32882L1.53421 2.00882C1.1431 1.83104 0.787546 1.68882 0.76088 1.68882C0.645324 1.68882 0.245324 2.8266 0.0942129 3.55549C-0.172454 4.9066 0.129768 6.04437 0.965324 6.79993C1.61421 7.3866 2.20088 7.57326 3.50755 7.6266C5.19644 7.68882 6.1831 7.41326 6.79644 6.71993C7.41866 6.00882 7.52532 5.49326 7.52532 3.24438V1.51104H6.68088H5.83644V3.24438Z" fill="#FFB673"/>
<path d="M12.6098 7.67107L12.1475 8.14218L12.6631 8.64885L13.1787 9.15552L13.6587 8.66663L14.1387 8.17774L13.6587 7.68885C13.392 7.42218 13.152 7.19996 13.1253 7.19996C13.0987 7.19996 12.8675 7.4133 12.6098 7.67107Z" fill="#FFB673"/>
<path d="M14.7431 7.67107L14.2809 8.14218L14.7964 8.64885L15.312 9.15552L15.8098 8.64885L16.3076 8.1333L15.792 7.66218C15.5076 7.4133 15.2587 7.19996 15.2409 7.19996C15.2231 7.19996 15.0009 7.4133 14.7431 7.67107Z" fill="#FFB673"/>
<path d="M0.343101 10.7644C0.369767 13.3777 0.387545 13.6711 0.538656 13.9555C0.974212 14.7822 1.49866 15.0666 2.59199 15.0666C3.18755 15.0666 3.4631 15.0222 3.67643 14.9066C3.96088 14.7555 3.97866 14.7555 4.3431 14.9422C5.32977 15.4488 6.39643 15.6088 7.01866 15.3422C8.06755 14.9066 8.44977 13.2444 7.80977 11.8755C7.3831 10.9599 6.59199 10.5066 5.60532 10.6044C4.52977 10.7111 3.76532 11.4666 3.31199 12.8533C3.20532 13.1733 3.09866 13.3422 2.93866 13.4133C2.61866 13.5555 2.32532 13.5377 2.16532 13.3511C2.03199 13.2088 2.01421 12.8977 2.01421 10.8799V8.56884L1.32977 8.28439C0.947545 8.13328 0.565323 7.98217 0.476434 7.94662C0.325323 7.89328 0.316434 8.02662 0.343101 10.7644ZM6.28977 12.4977C6.52088 12.7377 6.61866 13.4755 6.46755 13.7599C6.3431 13.9911 6.01421 13.9555 5.39199 13.6444C5.02755 13.4666 4.99199 13.4222 5.00977 13.1555C5.02755 12.6577 5.5431 12.1422 5.92532 12.2399C6.01421 12.2666 6.17421 12.3822 6.28977 12.4977Z" fill="#FFB673"/>
<path d="M10.5475 9.67996C9.55199 10.0089 8.96532 10.8177 8.87643 12C8.8231 12.8089 8.96532 13.2711 9.42755 13.7244C9.89866 14.2044 10.4587 14.4 11.3209 14.4C12.0498 14.4 12.1209 14.48 11.7564 14.8711C11.4453 15.2089 10.9475 15.3866 10.1742 15.44L9.48088 15.4933V16.32V17.1555H9.73866C10.272 17.1555 11.5875 16.8711 12.0853 16.6489C12.7431 16.3466 13.3387 15.7066 13.5253 15.0844C13.5964 14.8355 13.6587 14.5866 13.6587 14.5244C13.6587 14.4533 13.9342 14.4089 14.5742 14.3822C15.6053 14.3377 16.1031 14.1689 16.5653 13.6889C17.0187 13.2266 17.1253 12.7644 17.1253 11.3511V10.1155L16.8853 10.1777C16.7431 10.2044 16.3698 10.3111 16.0409 10.4177L15.4364 10.5955V11.4933C15.4364 11.9911 15.4009 12.4444 15.3653 12.5066C15.2498 12.6933 14.8231 12.8 14.2275 12.8H13.6587V12.2222C13.6587 10.7466 12.7342 9.70663 11.3564 9.63552C11.0364 9.61774 10.672 9.63552 10.5475 9.67996ZM11.8009 11.5911C11.9075 11.7689 11.9698 12.0355 11.9698 12.3289V12.8H11.472C10.7075 12.8 10.4587 12.6222 10.4587 12.08C10.4587 11.28 11.4009 10.9333 11.8009 11.5911Z" fill="#FFB673"/>
</svg>
